<svg xmlns="http://www.w3.org/2000/svg" xmlns:xlink="http://www.w3.org/1999/xlink" width="108" height="35" viewBox="0 0 108 35"><defs><path id="9skpa" d="M1310.97 7662.96c.08.22-.32 1.06-.32 1.06s-.88 2.34-4.33 2.32c-.5 0-3.94-.38-2.4-4.93.22-.66 1.23-4.22 2.38-8.07l-.72.02h-3.25c.28 2.45.42 2.9.37 5.58-.02 1.43-.35 8.73-2.02 11.8-1.42 2.59-2.78 3.01-3.69 3.2-.86.19-2.69-.01-3.37-1.3-.86-1.62.06-4.56.06-4.56l1.97-5.94c-1.05 2.03-2.62 4.14-4.54 4.01-1.97-.13-2.02-1.65-2.02-1.65s-1.14 1.75-3.42 1.65c-2.89-.13-3.1-2.1-3.1-2.1s-2.1 2.15-3.82 2.1c-.73-.02-1.57-.02-2.2-.8-.65-.84-.44-1.96-.08-3.04.6-1.75.9-2.7 1.14-3.58-.1.1-.78 1.24-2.23 1.38-.33.03-.73.03-1 0-.7 3-2.08 4.59-3.11 5.27-2.3 1.51-6.01 1.3-7.83-.86-1.41-1.68-1.92-4.3-.91-7.94a13.63 13.63 0 0 1 3.55-6.02c2.28-2.25 4.44-2.8 6.66-2.52 1.41.17 3.96 1.17 4.21 3.59.45-.34 1.01-.7 1.7-1.04 3.07-1.49 6.3-.73 10.3-.21 3.86.5 7.07.56 10.46.31l.39-1.07 2.27-7.29c.4-1.3.82-2.04 1.45-2.43 1-.61 2.6-.46 3.19.35.47.66.9 2.44-.57 5-.75 1.34-2.13 3.82-2.62 4.37l-.35.69c1.25-.16 2.57-.35 3.97-.57l.28-.05c1.09-3.46 2.14-6.51 2.68-7.16.44-.53 1.69-1.2 2.52-1.61.46-.23.66.12.66.12l-2.45 8.06c4.3-.81 6.4-1.49 6.4-1.49s-.88 2.34-2.42 3.83c-.6.6-2.87 1.19-5.2 1.55a301.16 301.16 0 0 0-2.31 7.17c-.39 1.28-1.7 4.49-.16 4.5.87 0 1.01-1.5 1.32-1.7.66-.43 2.3-.64 2.51 0zm-8.13-13.37c.2-.3 1.15-1.94 1.67-2.74 1.47-2.24 2.01-4.63 1.76-5.32-.26-.7-.83-.04-1.07.71-.55 1.74-1.87 5.9-2.36 7.35zm-29.45 7.03c-.34-.34-1.34-.32-1.16.73.22 1.28 1.26 1.58 1.48 1.58 0 0 .5-1.47-.32-2.3zm16.47 1.22s.23-1.35-1.01-1.51c-.9-.12-1.73.82-2.55 2.64-.84 1.87-1.08 3.14-1.03 3.84.11 1.53 1.5 1.6 2.32 1.09a4.64 4.64 0 0 0 1.58-2.47c.45-1.53.78-2.93.7-3.59zm6.73 1.49l1.98-5.98a61.54 61.54 0 0 1-8.74-.63c-6.03-.8-10.53-1.3-12.27.64-1.15 1.27-1.9 1.03-2.15.77-.09-.09-.04-.29-.04-.29l.07-.3c.45-2.17-1.28-3.47-3.16-3.04-1.59.35-3 1.34-4.46 4.37-1.46 3.02-1.7 6.6-.75 7.96 1.23 1.76 3.31 1.9 4.8.1a7.05 7.05 0 0 0 1.52-2.96 3.23 3.23 0 0 1-2.01-1.93c-.28-.9-.13-1.79.53-2.22.51-.33 1.93-.52 2.52.82.5 1.17.1 2.4.1 2.4.14.1 1.11.23 1.81-.36.95-.79 1.62-2.76 2.63-3.32.61-.34 2.84-.22 2.84-.22s-.96 3.21-1.53 4.96c-.36 1.11-1.2 3.3-.77 3.73 1 1.02 2.76-.88 2.76-.88s-.07-3.4 2.82-6.13c1.2-1.13 2.45-1.76 3.98-1.68 1.53.09 1.52 1.32 1.52 1.32s.6-.9.88-1.1c.62-.44 2.63-.22 2.63-.22s-1.76 5.54-2.07 6.47c-.2.55-.78 2.46.2 2.45 1.83-.02 3.37-2.56 4.36-4.73zm4.86-5.25l-4.88 15.08s-.38 1.26-.17 1.8c.15.43.44.61 1.06.37.67-.26 1.57-.88 2.65-3.53 1.06-2.59 2.08-8.68 1.34-13.72zm59.13-.87l-1.02 3.22c1.54-2.34 5.49-2.13 5.35 0-.22 3.4-2.5 4.26-3.81 4.9-1.48.72-2.25.58-2.76.64.09.02 1.64.04 2.19.42 1.53 1.07.66 2.34 1.53 2.34.44 0 .67-.63.81-1.06.29-.85.95-.85.95-.85s1.02-.14 1.34-.08c.86.16.45.76.3 1.19a7.98 7.98 0 0 1-.67 1.25c-.75.94-2.3 1.07-3.25 1.04-1.46-.03-2.1-.85-2.1-2.13 0-1.5-1.76-1.49-1.76-1.49l-1.08 2.98s-.14.66-.58.66c-.6 0-.9-.03-2-.03-.65 0-.49-.63-.49-.63l1.2-3.35s-2.17 4.01-4.52 3.99c-.72-.01-1.57-.02-2.19-.8-.65-.84-.44-1.96-.08-3.05.6-1.75 1.38-3.69 1.2-3.6-1.4.68-2.33.08-2.52-.02a4.45 4.45 0 0 1-2.09 1.6c-1.41 6.71-6.84 6.6-8.49 4.8-1-1.08-1.15-2.73-.67-4.58-.24.18-.7.35-1.14.36-.44 0-.85-.15-.9-.16-.23.95-.6 2.17-1.07 2.9-1.97 3.07-4.6 2.76-5.66 1.91a5.5 5.5 0 0 1-1.52-1.89 4.9 4.9 0 0 1-1.76 1.92c-1.27.8-4.24 1.18-6.05-.98-1.42-1.68-1.93-4.3-.92-7.94a13.34 13.34 0 0 1 3.56-6.03c2.07-1.95 4.7-2.85 6.63-2.76 3.76.17 4.64 2.1 4.72 3.48.4-.29.9-.6 1.49-.88 3.06-1.49 6.07-.94 10.08-.43 5.54.72 9.9.7 15.28.02l.37-1.04 2.27-7.28c.41-1.31.83-2.04 1.45-2.43 1-.62 2.6-.47 3.19.35.47.66 1.04 2.07-.56 5a43.81 43.81 0 0 1-2.62 4.36l-.35.5c6.29-1.03 8.14-2.03 8.14-2.03s-.88 2.46-2.41 3.95c-.84.81-4.66 1.54-7.01 1.74zm.94-4.18c.2-.3 1.15-1.94 1.68-2.75 1.46-2.23 2-4.63 1.75-5.32-.25-.69-.83-.04-1.06.72-.55 1.73-1.88 5.9-2.37 7.35zm-34.25 7.43c-.02-.75-.77-1.24-1.32-.21-.61 1.14 0 3.4 0 3.4s1.36-1.15 1.32-3.2zm15.29.19c-.66-.64-2.46-.43-3.73 2.55-.7 1.65-.9 3.1-.65 4.04.44 1.7 3.5 1.7 4.65-2.34l.06-.27c-.04 0-2.96-.15-2.74-1.64.1-.67 1.31-.43 2.41-.43h.72c.04-.67-.1-1.32-.72-1.91zm4.7-.52c-.2-.53-.89-.53-1.1-.1-.5 1 .51 1.53.48 1.56.45-.29.77-1.04.62-1.46zm10-2.85c-4.25.02-9.81.03-14.43-.86-6.37-1.24-8.98-1.08-10.96.85-1.97 1.91-2.53.85-2.47.58.14-.63.25-1.5.18-2.02-.14-1.14-.83-1.93-2.39-1.97-1.97-.04-4.2 1-5.67 4.02-1.46 3.03-2.12 7.17-1.05 8.54 1.36 1.72 3.86.09 3.91-.94-.16-.47-1.8-5.45.9-6.9 1.32-.7 5.27.39.9 6.56-.23 1.49 3.06 4.9 5.2 1.04.44-.79.56-1.77.62-2.67-.77-1.03-1.26-2.27-.85-3.26.33-.81 1.23-.89 1.59-.76.9.32 1.1 1.5.91 3.54.2.3.47.35.8.38 1.06.1 1.4-.44 1.52-.55 1.14-2.51 3.45-3.92 5.2-3.91 2.77.02 3.46 1.76 3.54 3.5.7-.06 1.04-.18 1.16-.32a2.74 2.74 0 0 1-.7-1.36c-.16-.82.17-1.39.69-1.65.47-.24 1.42-.34 1.92.47.69 1.1-.47 2.4-.47 2.4.18.18.72.32 1.39-.28.65-.6 1.38-1.72 1.53-1.91.66-.86 3.05-.59 3.05-.59l-1.43 4.42c-.36 1.11-1.38 3.72-1.1 4.25.52.96 2.07-.72 2.07-.72 1.56-1.5 3.12-5.5 3.12-5.5l1.33-4.38zm1.65 5.07l-.86 2.55s2.52.39 3.93-2.34c1.75-3.4-1.98-2.55-3.07-.21z"/></defs><g><g transform="translate(-1262 -7639)"><use fill="#26272d" xlink:href="#9skpa"/></g></g></svg>